<?xml version="1.0" encoding="UTF-8" standalone="no"?>
<!DOCTYPE svg PUBLIC "-//W3C//DTD SVG 1.1//EN"
 "http://www.w3.org/Graphics/SVG/1.1/DTD/svg11.dtd">
<!-- Generated by graphviz version 12.1.2 (20240928.0832)
 -->
<!-- Title: G Pages: 1 -->
<svg width="408pt" height="471pt"
 viewBox="0.00 0.00 408.00 471.00" xmlns="http://www.w3.org/2000/svg" xmlns:xlink="http://www.w3.org/1999/xlink">
<g id="graph0" class="graph" transform="scale(1 1) rotate(0) translate(4 467)">
<title>G</title>
<polygon fill="#eeeeee" stroke="none" points="-4,4 -4,-467 404,-467 404,4 -4,4"/>
<g id="clust1" class="cluster">
<title>cluster_inputs</title>
<polygon fill="#eeeeee" stroke="black" stroke-dasharray="5,2" points="234,-377.5 234,-455 343,-455 343,-377.5 234,-377.5"/>
<text text-anchor="middle" x="288.5" y="-384.7" font-family="Times,serif" font-size="14.00">Workflow Inputs</text>
</g>
<g id="clust2" class="cluster">
<title>cluster_outputs</title>
<polygon fill="#eeeeee" stroke="black" stroke-dasharray="5,2" points="218,-8 218,-85.5 336,-85.5 336,-8 218,-8"/>
<text text-anchor="middle" x="277" y="-15.2" font-family="Times,serif" font-size="14.00">Workflow Outputs</text>
</g>
<!-- SS5209 -->
<g id="node1" class="node">
<title>SS5209</title>
<polygon fill="none" stroke="black" stroke-dasharray="5,2" points="0,-410.5 0,-446.5 58,-446.5 58,-410.5 0,-410.5"/>
<text text-anchor="middle" x="29" y="-423.45" font-family="Times,serif" font-size="14.00">SS5209</text>
</g>
<!-- SS5212 -->
<g id="node2" class="node">
<title>SS5212</title>
<polygon fill="none" stroke="black" stroke-dasharray="5,2" points="76,-333 76,-369 134,-369 134,-333 76,-333"/>
<text text-anchor="middle" x="105" y="-345.95" font-family="Times,serif" font-size="14.00">SS5212</text>
</g>
<!-- SS5209&#45;&gt;SS5212 -->
<g id="edge1" class="edge">
<title>SS5209&#45;&gt;SS5212</title>
<path fill="none" stroke="black" d="M40.06,-410.15C47.05,-399.97 56.69,-387.22 67,-377.5 67.38,-377.15 67.76,-376.79 68.14,-376.44"/>
<polygon fill="black" stroke="black" points="70.09,-379.37 75.62,-370.33 65.66,-373.95 70.09,-379.37"/>
</g>
<!-- SS5210 -->
<g id="node3" class="node">
<title>SS5210</title>
<polygon fill="none" stroke="black" stroke-dasharray="5,2" points="76,-410.5 76,-446.5 134,-446.5 134,-410.5 76,-410.5"/>
<text text-anchor="middle" x="105" y="-423.45" font-family="Times,serif" font-size="14.00">SS5210</text>
</g>
<!-- SS5210&#45;&gt;SS5212 -->
<g id="edge2" class="edge">
<title>SS5210&#45;&gt;SS5212</title>
<path fill="none" stroke="black" d="M105,-410.37C105,-401.55 105,-390.57 105,-380.51"/>
<polygon fill="black" stroke="black" points="108.5,-380.84 105,-370.84 101.5,-380.84 108.5,-380.84"/>
</g>
<!-- SS5211 -->
<g id="node4" class="node">
<title>SS5211</title>
<polygon fill="none" stroke="black" stroke-dasharray="5,2" points="152,-410.5 152,-446.5 210,-446.5 210,-410.5 152,-410.5"/>
<text text-anchor="middle" x="181" y="-423.45" font-family="Times,serif" font-size="14.00">SS5211</text>
</g>
<!-- SS5211&#45;&gt;SS5212 -->
<g id="edge3" class="edge">
<title>SS5211&#45;&gt;SS5212</title>
<path fill="none" stroke="black" d="M169.94,-410.15C162.95,-399.97 153.31,-387.22 143,-377.5 142.62,-377.15 142.24,-376.79 141.86,-376.44"/>
<polygon fill="black" stroke="black" points="144.34,-373.95 134.38,-370.33 139.91,-379.37 144.34,-373.95"/>
</g>
<!-- SS5204 -->
<g id="node5" class="node">
<title>SS5204</title>
<polygon fill="none" stroke="black" stroke-dasharray="5,2" points="152,-333 152,-369 210,-369 210,-333 152,-333"/>
<text text-anchor="middle" x="181" y="-345.95" font-family="Times,serif" font-size="14.00">SS5204</text>
</g>
<!-- SS5213 -->
<g id="node6" class="node">
<title>SS5213</title>
<polygon fill="none" stroke="black" stroke-dasharray="5,2" points="222,-260 222,-296 280,-296 280,-260 222,-260"/>
<text text-anchor="middle" x="251" y="-272.95" font-family="Times,serif" font-size="14.00">SS5213</text>
</g>
<!-- SS5204&#45;&gt;SS5213 -->
<g id="edge4" class="edge">
<title>SS5204&#45;&gt;SS5213</title>
<path fill="none" stroke="black" d="M197.95,-332.81C206.46,-324.18 216.93,-313.56 226.32,-304.03"/>
<polygon fill="black" stroke="black" points="228.62,-306.68 233.15,-297.11 223.64,-301.77 228.62,-306.68"/>
</g>
<!-- SS5214 -->
<g id="node9" class="node">
<title>SS5214</title>
<polygon fill="none" stroke="black" stroke-dasharray="5,2" points="279,-187 279,-223 337,-223 337,-187 279,-187"/>
<text text-anchor="middle" x="308" y="-199.95" font-family="Times,serif" font-size="14.00">SS5214</text>
</g>
<!-- SS5213&#45;&gt;SS5214 -->
<g id="edge7" class="edge">
<title>SS5213&#45;&gt;SS5214</title>
<path fill="none" stroke="black" d="M264.8,-259.81C271.52,-251.44 279.74,-241.2 287.2,-231.9"/>
<polygon fill="black" stroke="black" points="289.85,-234.2 293.38,-224.21 284.39,-229.82 289.85,-234.2"/>
</g>
<!-- SS5215 -->
<g id="node10" class="node">
<title>SS5215</title>
<polygon fill="none" stroke="black" stroke-dasharray="5,2" points="248,-114 248,-150 306,-150 306,-114 248,-114"/>
<text text-anchor="middle" x="277" y="-126.95" font-family="Times,serif" font-size="14.00">SS5215</text>
</g>
<!-- SS5213&#45;&gt;SS5215 -->
<g id="edge8" class="edge">
<title>SS5213&#45;&gt;SS5215</title>
<path fill="none" stroke="black" d="M254.14,-259.63C258.53,-235.3 266.56,-190.8 271.84,-161.56"/>
<polygon fill="black" stroke="black" points="275.25,-162.38 273.58,-151.92 268.36,-161.14 275.25,-162.38"/>
</g>
<!-- SS5205 -->
<g id="node7" class="node">
<title>SS5205</title>
<polygon fill="none" stroke="black" stroke-dasharray="5,2" points="266,-333 266,-369 324,-369 324,-333 266,-333"/>
<text text-anchor="middle" x="295" y="-345.95" font-family="Times,serif" font-size="14.00">SS5205</text>
</g>
<!-- SS5205&#45;&gt;SS5213 -->
<g id="edge5" class="edge">
<title>SS5205&#45;&gt;SS5213</title>
<path fill="none" stroke="black" d="M284.35,-332.81C279.32,-324.7 273.21,-314.84 267.59,-305.78"/>
<polygon fill="black" stroke="black" points="270.59,-303.97 262.35,-297.32 264.64,-307.66 270.59,-303.97"/>
</g>
<!-- SS5206 -->
<g id="node8" class="node">
<title>SS5206</title>
<polygon fill="none" stroke="black" stroke-dasharray="5,2" points="342,-333 342,-369 400,-369 400,-333 342,-333"/>
<text text-anchor="middle" x="371" y="-345.95" font-family="Times,serif" font-size="14.00">SS5206</text>
</g>
<!-- SS5206&#45;&gt;SS5214 -->
<g id="edge6" class="edge">
<title>SS5206&#45;&gt;SS5214</title>
<path fill="none" stroke="black" d="M363.4,-332.63C352.66,-308.09 332.94,-263 320.15,-233.78"/>
<polygon fill="black" stroke="black" points="323.45,-232.58 316.23,-224.82 317.03,-235.38 323.45,-232.58"/>
</g>
<!-- SS5214&#45;&gt;SS5215 -->
<g id="edge9" class="edge">
<title>SS5214&#45;&gt;SS5215</title>
<path fill="none" stroke="black" d="M300.5,-186.81C297.03,-178.88 292.83,-169.26 288.95,-160.36"/>
<polygon fill="black" stroke="black" points="292.25,-159.18 285.04,-151.42 285.83,-161.98 292.25,-159.18"/>
</g>
<!-- DT5201 -->
<g id="node12" class="node">
<title>DT5201</title>
<polygon fill="#94ddf4" stroke="black" points="246.5,-41 246.5,-77 307.5,-77 307.5,-41 246.5,-41"/>
<text text-anchor="middle" x="277" y="-53.95" font-family="Times,serif" font-size="14.00">DT5201</text>
</g>
<!-- SS5215&#45;&gt;DT5201 -->
<g id="edge14" class="edge">
<title>SS5215&#45;&gt;DT5201</title>
<path fill="none" stroke="black" d="M277,-113.81C277,-106.23 277,-97.1 277,-88.54"/>
<polygon fill="black" stroke="black" points="280.5,-88.54 277,-78.54 273.5,-88.54 280.5,-88.54"/>
</g>
<!-- DT5210 -->
<g id="node11" class="node">
<title>DT5210</title>
<polygon fill="#94ddf4" stroke="black" points="258.5,-410.5 258.5,-446.5 319.5,-446.5 319.5,-410.5 258.5,-410.5"/>
<text text-anchor="middle" x="289" y="-423.45" font-family="Times,serif" font-size="14.00">DT5210</text>
</g>
<!-- DT5210&#45;&gt;SS5204 -->
<g id="edge10" class="edge">
<title>DT5210&#45;&gt;SS5204</title>
<path fill="none" stroke="black" d="M265.15,-410.2C251.67,-400.49 234.47,-388.21 219,-377.5 218.17,-376.93 217.33,-376.35 216.48,-375.76"/>
<polygon fill="black" stroke="black" points="218.72,-373.05 208.48,-370.31 214.78,-378.84 218.72,-373.05"/>
</g>
<!-- DT5210&#45;&gt;SS5213 -->
<g id="edge13" class="edge">
<title>DT5210&#45;&gt;SS5213</title>
<path fill="none" stroke="black" d="M276.76,-410.11C269.65,-399.03 261.27,-384.07 257,-369.5 251.13,-349.49 249.73,-325.96 249.74,-307.91"/>
<polygon fill="black" stroke="black" points="253.24,-307.97 249.92,-297.91 246.24,-307.85 253.24,-307.97"/>
</g>
<!-- DT5210&#45;&gt;SS5205 -->
<g id="edge11" class="edge">
<title>DT5210&#45;&gt;SS5205</title>
<path fill="none" stroke="black" d="M290.36,-410.37C291.06,-401.55 291.94,-390.57 292.73,-380.51"/>
<polygon fill="black" stroke="black" points="296.2,-381.08 293.5,-370.83 289.22,-380.53 296.2,-381.08"/>
</g>
<!-- DT5210&#45;&gt;SS5206 -->
<g id="edge12" class="edge">
<title>DT5210&#45;&gt;SS5206</title>
<path fill="none" stroke="black" d="M307.61,-410.37C318.33,-400.5 332,-387.91 343.9,-376.95"/>
<polygon fill="black" stroke="black" points="346.08,-379.7 351.07,-370.35 341.34,-374.55 346.08,-379.7"/>
</g>
</g>
</svg>
