<?xml version="1.0" encoding="UTF-8" standalone="no"?>
<!DOCTYPE svg PUBLIC "-//W3C//DTD SVG 1.1//EN"
 "http://www.w3.org/Graphics/SVG/1.1/DTD/svg11.dtd">
<!-- Generated by graphviz version 12.1.2 (20240928.0832)
 -->
<!-- Title: G Pages: 1 -->
<svg width="1050pt" height="398pt"
 viewBox="0.00 0.00 1050.43 398.00" xmlns="http://www.w3.org/2000/svg" xmlns:xlink="http://www.w3.org/1999/xlink">
<g id="graph0" class="graph" transform="scale(1 1) rotate(0) translate(4 394)">
<title>G</title>
<polygon fill="#eeeeee" stroke="none" points="-4,4 -4,-394 1046.43,-394 1046.43,4 -4,4"/>
<g id="clust1" class="cluster">
<title>cluster_inputs</title>
<polygon fill="#eeeeee" stroke="black" stroke-dasharray="5,2" points="391.12,-304.5 391.12,-382 500.12,-382 500.12,-304.5 391.12,-304.5"/>
<text text-anchor="middle" x="445.62" y="-311.7" font-family="Times,serif" font-size="14.00">Workflow Inputs</text>
</g>
<g id="clust2" class="cluster">
<title>cluster_outputs</title>
<polygon fill="#eeeeee" stroke="black" stroke-dasharray="5,2" points="58.12,-8 58.12,-85.5 689.12,-85.5 689.12,-8 58.12,-8"/>
<text text-anchor="middle" x="630.12" y="-15.2" font-family="Times,serif" font-size="14.00">Workflow Outputs</text>
</g>
<!-- ST520109 -->
<g id="node1" class="node">
<title>ST520109</title>
<polygon fill="#f3cea1" stroke="black" points="0,-260 0,-296 72.25,-296 72.25,-260 0,-260"/>
<text text-anchor="middle" x="36.12" y="-272.95" font-family="Times,serif" font-size="14.00">ST520109</text>
</g>
<!-- ST520101 -->
<g id="node2" class="node">
<title>ST520101</title>
<polygon fill="#f3cea1" stroke="black" points="300,-187 300,-223 372.25,-223 372.25,-187 300,-187"/>
<text text-anchor="middle" x="336.12" y="-199.95" font-family="Times,serif" font-size="14.00">ST520101</text>
</g>
<!-- ST520109&#45;&gt;ST520101 -->
<g id="edge1" class="edge">
<title>ST520109&#45;&gt;ST520101</title>
<path fill="none" stroke="black" d="M72.3,-262.34C75.26,-261.32 78.23,-260.36 81.12,-259.5 156,-237.27 176.69,-239.56 253.12,-223.5 264.58,-221.09 276.93,-218.49 288.51,-216.05"/>
<polygon fill="black" stroke="black" points="289.22,-219.48 298.28,-213.99 287.78,-212.63 289.22,-219.48"/>
</g>
<!-- ST520112 -->
<g id="node10" class="node">
<title>ST520112</title>
<polygon fill="#f3cea1" stroke="black" points="82,-187 82,-223 154.25,-223 154.25,-187 82,-187"/>
<text text-anchor="middle" x="118.12" y="-199.95" font-family="Times,serif" font-size="14.00">ST520112</text>
</g>
<!-- ST520109&#45;&gt;ST520112 -->
<g id="edge9" class="edge">
<title>ST520109&#45;&gt;ST520112</title>
<path fill="none" stroke="black" d="M55.97,-259.81C66.07,-251.07 78.53,-240.28 89.63,-230.67"/>
<polygon fill="black" stroke="black" points="91.76,-233.46 97.03,-224.27 87.18,-228.17 91.76,-233.46"/>
</g>
<!-- ST520113 -->
<g id="node11" class="node">
<title>ST520113</title>
<polygon fill="#f3cea1" stroke="black" points="172,-187 172,-223 244.25,-223 244.25,-187 172,-187"/>
<text text-anchor="middle" x="208.12" y="-199.95" font-family="Times,serif" font-size="14.00">ST520113</text>
</g>
<!-- ST520109&#45;&gt;ST520113 -->
<g id="edge11" class="edge">
<title>ST520109&#45;&gt;ST520113</title>
<path fill="none" stroke="black" d="M72.6,-261.94C98.48,-251.26 133.44,-236.83 161.37,-225.3"/>
<polygon fill="black" stroke="black" points="162.39,-228.66 170.3,-221.61 159.72,-222.19 162.39,-228.66"/>
</g>
<!-- DT5205 -->
<g id="node21" class="node">
<title>DT5205</title>
<polygon fill="#94ddf4" stroke="black" points="66.62,-41 66.62,-77 127.62,-77 127.62,-41 66.62,-41"/>
<text text-anchor="middle" x="97.12" y="-53.95" font-family="Times,serif" font-size="14.00">DT5205</text>
</g>
<!-- ST520109&#45;&gt;DT5205 -->
<g id="edge36" class="edge">
<title>ST520109&#45;&gt;DT5205</title>
<path fill="none" stroke="black" d="M41.01,-259.61C51.52,-222.23 76.34,-133.94 89.16,-88.35"/>
<polygon fill="black" stroke="black" points="92.47,-89.51 91.8,-78.93 85.73,-87.61 92.47,-89.51"/>
</g>
<!-- ST520106 -->
<g id="node3" class="node">
<title>ST520106</title>
<polygon fill="#f3cea1" stroke="black" points="544,-260 544,-296 616.25,-296 616.25,-260 544,-260"/>
<text text-anchor="middle" x="580.12" y="-272.95" font-family="Times,serif" font-size="14.00">ST520106</text>
</g>
<!-- ST520106&#45;&gt;ST520101 -->
<g id="edge2" class="edge">
<title>ST520106&#45;&gt;ST520101</title>
<path fill="none" stroke="black" d="M543.9,-262.52C540.94,-261.46 537.99,-260.44 535.12,-259.5 483.96,-242.73 424.18,-227.19 383.59,-217.22"/>
<polygon fill="black" stroke="black" points="384.44,-213.83 373.89,-214.86 382.78,-220.63 384.44,-213.83"/>
</g>
<!-- ST520114 -->
<g id="node12" class="node">
<title>ST520114</title>
<polygon fill="#f3cea1" stroke="black" points="582,-187 582,-223 654.25,-223 654.25,-187 582,-187"/>
<text text-anchor="middle" x="618.12" y="-199.95" font-family="Times,serif" font-size="14.00">ST520114</text>
</g>
<!-- ST520106&#45;&gt;ST520114 -->
<g id="edge16" class="edge">
<title>ST520106&#45;&gt;ST520114</title>
<path fill="none" stroke="black" d="M589.32,-259.81C593.62,-251.79 598.83,-242.05 603.64,-233.07"/>
<polygon fill="black" stroke="black" points="606.66,-234.83 608.3,-224.36 600.49,-231.53 606.66,-234.83"/>
</g>
<!-- DT5204 -->
<g id="node20" class="node">
<title>DT5204</title>
<polygon fill="#94ddf4" stroke="black" points="461.62,-41 461.62,-77 522.62,-77 522.62,-41 461.62,-41"/>
<text text-anchor="middle" x="492.12" y="-53.95" font-family="Times,serif" font-size="14.00">DT5204</text>
</g>
<!-- ST520106&#45;&gt;DT5204 -->
<g id="edge35" class="edge">
<title>ST520106&#45;&gt;DT5204</title>
<path fill="none" stroke="black" d="M573.07,-259.61C557.88,-222.15 521.96,-133.57 503.5,-88.06"/>
<polygon fill="black" stroke="black" points="506.78,-86.83 499.78,-78.88 500.29,-89.46 506.78,-86.83"/>
</g>
<!-- ST520105 -->
<g id="node4" class="node">
<title>ST520105</title>
<polygon fill="#f3cea1" stroke="black" points="454,-260 454,-296 526.25,-296 526.25,-260 454,-260"/>
<text text-anchor="middle" x="490.12" y="-272.95" font-family="Times,serif" font-size="14.00">ST520105</text>
</g>
<!-- ST520105&#45;&gt;ST520101 -->
<g id="edge3" class="edge">
<title>ST520105&#45;&gt;ST520101</title>
<path fill="none" stroke="black" d="M453.63,-260.17C432.51,-250.44 405.72,-238.08 383.05,-227.63"/>
<polygon fill="black" stroke="black" points="384.55,-224.47 374,-223.46 381.62,-230.83 384.55,-224.47"/>
</g>
<!-- ST520105&#45;&gt;ST520113 -->
<g id="edge13" class="edge">
<title>ST520105&#45;&gt;ST520113</title>
<path fill="none" stroke="black" d="M453.94,-262.39C450.98,-261.36 448.01,-260.38 445.12,-259.5 427.14,-254.01 319.25,-230.21 255.41,-216.28"/>
<polygon fill="black" stroke="black" points="256.41,-212.91 245.89,-214.2 254.92,-219.75 256.41,-212.91"/>
</g>
<!-- DT5203 -->
<g id="node19" class="node">
<title>DT5203</title>
<polygon fill="#94ddf4" stroke="black" points="382.62,-41 382.62,-77 443.62,-77 443.62,-41 382.62,-41"/>
<text text-anchor="middle" x="413.12" y="-53.95" font-family="Times,serif" font-size="14.00">DT5203</text>
</g>
<!-- ST520105&#45;&gt;DT5203 -->
<g id="edge34" class="edge">
<title>ST520105&#45;&gt;DT5203</title>
<path fill="none" stroke="black" d="M483.95,-259.61C470.66,-222.15 439.23,-133.57 423.08,-88.06"/>
<polygon fill="black" stroke="black" points="426.47,-87.15 419.83,-78.9 419.88,-89.5 426.47,-87.15"/>
</g>
<!-- ST520104 -->
<g id="node5" class="node">
<title>ST520104</title>
<polygon fill="#f3cea1" stroke="black" points="364,-260 364,-296 436.25,-296 436.25,-260 364,-260"/>
<text text-anchor="middle" x="400.12" y="-272.95" font-family="Times,serif" font-size="14.00">ST520104</text>
</g>
<!-- ST520104&#45;&gt;ST520101 -->
<g id="edge4" class="edge">
<title>ST520104&#45;&gt;ST520101</title>
<path fill="none" stroke="black" d="M384.63,-259.81C376.93,-251.27 367.47,-240.77 358.95,-231.32"/>
<polygon fill="black" stroke="black" points="361.78,-229.24 352.49,-224.15 356.58,-233.92 361.78,-229.24"/>
</g>
<!-- ST520104&#45;&gt;ST520113 -->
<g id="edge15" class="edge">
<title>ST520104&#45;&gt;ST520113</title>
<path fill="none" stroke="black" d="M363.56,-263.48C332.73,-252.08 288.42,-235.69 254.99,-223.33"/>
<polygon fill="black" stroke="black" points="256.57,-220.18 245.97,-220 254.14,-226.75 256.57,-220.18"/>
</g>
<!-- DT5202 -->
<g id="node18" class="node">
<title>DT5202</title>
<polygon fill="#94ddf4" stroke="black" points="303.62,-41 303.62,-77 364.62,-77 364.62,-41 303.62,-41"/>
<text text-anchor="middle" x="334.12" y="-53.95" font-family="Times,serif" font-size="14.00">DT5202</text>
</g>
<!-- ST520104&#45;&gt;DT5202 -->
<g id="edge33" class="edge">
<title>ST520104&#45;&gt;DT5202</title>
<path fill="none" stroke="black" d="M397.3,-259.8C394.11,-241.46 388.39,-211.64 381.12,-186.5 371.1,-151.8 356.1,-113.01 345.76,-87.65"/>
<polygon fill="black" stroke="black" points="349.12,-86.63 342.08,-78.72 342.65,-89.3 349.12,-86.63"/>
</g>
<!-- ST520111 -->
<g id="node6" class="node">
<title>ST520111</title>
<polygon fill="#f3cea1" stroke="black" points="90,-260 90,-296 162.25,-296 162.25,-260 90,-260"/>
<text text-anchor="middle" x="126.12" y="-272.95" font-family="Times,serif" font-size="14.00">ST520111</text>
</g>
<!-- ST520111&#45;&gt;ST520101 -->
<g id="edge5" class="edge">
<title>ST520111&#45;&gt;ST520101</title>
<path fill="none" stroke="black" d="M162.7,-264.63C197.68,-252.81 250.59,-234.92 288.77,-222.01"/>
<polygon fill="black" stroke="black" points="289.83,-225.35 298.18,-218.83 287.59,-218.72 289.83,-225.35"/>
</g>
<!-- ST520111&#45;&gt;ST520112 -->
<g id="edge8" class="edge">
<title>ST520111&#45;&gt;ST520112</title>
<path fill="none" stroke="black" d="M124.19,-259.81C123.32,-252.14 122.28,-242.89 121.31,-234.24"/>
<polygon fill="black" stroke="black" points="124.81,-234.08 120.21,-224.53 117.85,-234.86 124.81,-234.08"/>
</g>
<!-- ST520111&#45;&gt;ST520113 -->
<g id="edge12" class="edge">
<title>ST520111&#45;&gt;ST520113</title>
<path fill="none" stroke="black" d="M145.97,-259.81C156.07,-251.07 168.53,-240.28 179.63,-230.67"/>
<polygon fill="black" stroke="black" points="181.76,-233.46 187.03,-224.27 177.18,-228.17 181.76,-233.46"/>
</g>
<!-- DT5207 -->
<g id="node23" class="node">
<title>DT5207</title>
<polygon fill="#94ddf4" stroke="black" points="145.62,-41 145.62,-77 206.62,-77 206.62,-41 145.62,-41"/>
<text text-anchor="middle" x="176.12" y="-53.95" font-family="Times,serif" font-size="14.00">DT5207</text>
</g>
<!-- ST520111&#45;&gt;DT5207 -->
<g id="edge38" class="edge">
<title>ST520111&#45;&gt;DT5207</title>
<path fill="none" stroke="black" d="M101.64,-259.56C90.71,-250.25 79,-237.77 73.12,-223.5 66.87,-208.29 67.61,-201.99 73.12,-186.5 87.64,-145.68 121.58,-108.48 146.55,-85.14"/>
<polygon fill="black" stroke="black" points="148.81,-87.82 153.85,-78.5 144.1,-82.65 148.81,-87.82"/>
</g>
<!-- ST520110 -->
<g id="node7" class="node">
<title>ST520110</title>
<polygon fill="#f3cea1" stroke="black" points="236,-260 236,-296 308.25,-296 308.25,-260 236,-260"/>
<text text-anchor="middle" x="272.12" y="-272.95" font-family="Times,serif" font-size="14.00">ST520110</text>
</g>
<!-- ST520110&#45;&gt;ST520101 -->
<g id="edge6" class="edge">
<title>ST520110&#45;&gt;ST520101</title>
<path fill="none" stroke="black" d="M287.62,-259.81C295.32,-251.27 304.78,-240.77 313.3,-231.32"/>
<polygon fill="black" stroke="black" points="315.67,-233.92 319.76,-224.15 310.47,-229.24 315.67,-233.92"/>
</g>
<!-- ST520110&#45;&gt;ST520112 -->
<g id="edge10" class="edge">
<title>ST520110&#45;&gt;ST520112</title>
<path fill="none" stroke="black" d="M235.63,-260.17C214.51,-250.44 187.72,-238.08 165.05,-227.63"/>
<polygon fill="black" stroke="black" points="166.55,-224.47 156,-223.46 163.62,-230.83 166.55,-224.47"/>
</g>
<!-- ST520110&#45;&gt;ST520113 -->
<g id="edge14" class="edge">
<title>ST520110&#45;&gt;ST520113</title>
<path fill="none" stroke="black" d="M256.63,-259.81C248.93,-251.27 239.47,-240.77 230.95,-231.32"/>
<polygon fill="black" stroke="black" points="233.78,-229.24 224.49,-224.15 228.58,-233.92 233.78,-229.24"/>
</g>
<!-- DT5206 -->
<g id="node22" class="node">
<title>DT5206</title>
<polygon fill="#94ddf4" stroke="black" points="224.62,-41 224.62,-77 285.62,-77 285.62,-41 224.62,-41"/>
<text text-anchor="middle" x="255.12" y="-53.95" font-family="Times,serif" font-size="14.00">DT5206</text>
</g>
<!-- ST520110&#45;&gt;DT5206 -->
<g id="edge37" class="edge">
<title>ST520110&#45;&gt;DT5206</title>
<path fill="none" stroke="black" d="M270.76,-259.61C267.85,-222.39 260.98,-134.69 257.39,-88.93"/>
<polygon fill="black" stroke="black" points="260.88,-88.68 256.61,-78.98 253.9,-89.23 260.88,-88.68"/>
</g>
<!-- ST520116 -->
<g id="node8" class="node">
<title>ST520116</title>
<polygon fill="#f3cea1" stroke="black" points="599,-114 599,-150 671.25,-150 671.25,-114 599,-114"/>
<text text-anchor="middle" x="635.12" y="-126.95" font-family="Times,serif" font-size="14.00">ST520116</text>
</g>
<!-- ST520102 -->
<g id="node9" class="node">
<title>ST520102</title>
<polygon fill="#f3cea1" stroke="black" points="699,-41 699,-77 771.25,-77 771.25,-41 699,-41"/>
<text text-anchor="middle" x="735.12" y="-53.95" font-family="Times,serif" font-size="14.00">ST520102</text>
</g>
<!-- ST520116&#45;&gt;ST520102 -->
<g id="edge7" class="edge">
<title>ST520116&#45;&gt;ST520102</title>
<path fill="none" stroke="black" d="M659.59,-113.63C672.18,-104.69 687.72,-93.66 701.43,-83.92"/>
<polygon fill="black" stroke="black" points="703.21,-86.95 709.33,-78.31 699.15,-81.25 703.21,-86.95"/>
</g>
<!-- DT5209 -->
<g id="node25" class="node">
<title>DT5209</title>
<polygon fill="#94ddf4" stroke="black" points="619.62,-41 619.62,-77 680.62,-77 680.62,-41 619.62,-41"/>
<text text-anchor="middle" x="650.12" y="-53.95" font-family="Times,serif" font-size="14.00">DT5209</text>
</g>
<!-- ST520116&#45;&gt;DT5209 -->
<g id="edge40" class="edge">
<title>ST520116&#45;&gt;DT5209</title>
<path fill="none" stroke="black" d="M638.76,-113.81C640.38,-106.14 642.33,-96.89 644.16,-88.24"/>
<polygon fill="black" stroke="black" points="647.57,-89.02 646.21,-78.51 640.72,-87.57 647.57,-89.02"/>
</g>
<!-- ST520114&#45;&gt;ST520116 -->
<g id="edge18" class="edge">
<title>ST520114&#45;&gt;ST520116</title>
<path fill="none" stroke="black" d="M622.24,-186.81C624.1,-179.05 626.34,-169.68 628.43,-160.95"/>
<polygon fill="black" stroke="black" points="631.77,-162.04 630.7,-151.5 624.96,-160.41 631.77,-162.04"/>
</g>
<!-- ST520115 -->
<g id="node13" class="node">
<title>ST520115</title>
<polygon fill="#f3cea1" stroke="black" points="689,-114 689,-150 761.25,-150 761.25,-114 689,-114"/>
<text text-anchor="middle" x="725.12" y="-126.95" font-family="Times,serif" font-size="14.00">ST520115</text>
</g>
<!-- ST520114&#45;&gt;ST520115 -->
<g id="edge17" class="edge">
<title>ST520114&#45;&gt;ST520115</title>
<path fill="none" stroke="black" d="M644.3,-186.63C657.9,-177.61 674.72,-166.44 689.49,-156.64"/>
<polygon fill="black" stroke="black" points="691.19,-159.72 697.59,-151.27 687.32,-153.88 691.19,-159.72"/>
</g>
<!-- DT5208 -->
<g id="node24" class="node">
<title>DT5208</title>
<polygon fill="#94ddf4" stroke="black" points="540.62,-41 540.62,-77 601.62,-77 601.62,-41 540.62,-41"/>
<text text-anchor="middle" x="571.12" y="-53.95" font-family="Times,serif" font-size="14.00">DT5208</text>
</g>
<!-- ST520114&#45;&gt;DT5208 -->
<g id="edge39" class="edge">
<title>ST520114&#45;&gt;DT5208</title>
<path fill="none" stroke="black" d="M607.52,-186.72C601.66,-176.51 594.66,-163.13 590.12,-150.5 582.91,-130.39 578.06,-106.73 575.07,-88.65"/>
<polygon fill="black" stroke="black" points="578.55,-88.24 573.56,-78.9 571.63,-89.31 578.55,-88.24"/>
</g>
<!-- DT5210 -->
<g id="node14" class="node">
<title>DT5210</title>
<polygon fill="#94ddf4" stroke="black" points="414.62,-337.5 414.62,-373.5 475.62,-373.5 475.62,-337.5 414.62,-337.5"/>
<text text-anchor="middle" x="445.12" y="-350.45" font-family="Times,serif" font-size="14.00">DT5210</text>
</g>
<!-- DT5210&#45;&gt;ST520109 -->
<g id="edge26" class="edge">
<title>DT5210&#45;&gt;ST520109</title>
<path fill="none" stroke="black" d="M414.46,-351.84C353.03,-346.03 210.56,-330.21 83.79,-296.93"/>
<polygon fill="black" stroke="black" points="84.78,-293.57 74.21,-294.37 82.97,-300.33 84.78,-293.57"/>
</g>
<!-- DT5210&#45;&gt;ST520101 -->
<g id="edge19" class="edge">
<title>DT5210&#45;&gt;ST520101</title>
<path fill="none" stroke="black" d="M414.22,-342.15C394.32,-332.62 369.56,-317.48 355.12,-296.5 342.6,-278.29 338.05,-253.5 336.52,-234.47"/>
<polygon fill="black" stroke="black" points="340.03,-234.51 335.99,-224.71 333.04,-234.89 340.03,-234.51"/>
</g>
<!-- DT5210&#45;&gt;ST520106 -->
<g id="edge23" class="edge">
<title>DT5210&#45;&gt;ST520106</title>
<path fill="none" stroke="black" d="M476.1,-337.18C494.88,-326.68 519.05,-313.15 539.37,-301.79"/>
<polygon fill="black" stroke="black" points="540.96,-304.92 547.98,-296.98 537.54,-298.81 540.96,-304.92"/>
</g>
<!-- DT5210&#45;&gt;ST520105 -->
<g id="edge22" class="edge">
<title>DT5210&#45;&gt;ST520105</title>
<path fill="none" stroke="black" d="M455.34,-337.37C460.82,-328.17 467.71,-316.61 473.91,-306.21"/>
<polygon fill="black" stroke="black" points="476.91,-308.01 479.02,-297.63 470.9,-304.42 476.91,-308.01"/>
</g>
<!-- DT5210&#45;&gt;ST520104 -->
<g id="edge21" class="edge">
<title>DT5210&#45;&gt;ST520104</title>
<path fill="none" stroke="black" d="M434.91,-337.37C429.43,-328.17 422.54,-316.61 416.34,-306.21"/>
<polygon fill="black" stroke="black" points="419.35,-304.42 411.23,-297.63 413.34,-308.01 419.35,-304.42"/>
</g>
<!-- DT5210&#45;&gt;ST520111 -->
<g id="edge28" class="edge">
<title>DT5210&#45;&gt;ST520111</title>
<path fill="none" stroke="black" d="M414.16,-349.12C363.79,-340.08 261.2,-320.46 176.12,-296.5 175.16,-296.23 174.18,-295.95 173.2,-295.66"/>
<polygon fill="black" stroke="black" points="174.58,-292.42 163.99,-292.79 172.5,-299.11 174.58,-292.42"/>
</g>
<!-- DT5210&#45;&gt;ST520110 -->
<g id="edge27" class="edge">
<title>DT5210&#45;&gt;ST520110</title>
<path fill="none" stroke="black" d="M414.2,-341C387.68,-329.43 349.08,-312.58 318.81,-299.37"/>
<polygon fill="black" stroke="black" points="320.43,-296.26 309.87,-295.47 317.63,-302.68 320.43,-296.26"/>
</g>
<!-- DT5210&#45;&gt;ST520113 -->
<g id="edge29" class="edge">
<title>DT5210&#45;&gt;ST520113</title>
<path fill="none" stroke="black" d="M414.2,-351.02C358.29,-343.55 244.53,-324.35 218.12,-296.5 202.66,-280.2 198.43,-254.67 199.24,-234.88"/>
<polygon fill="black" stroke="black" points="202.72,-235.23 200.19,-224.94 195.75,-234.56 202.72,-235.23"/>
</g>
<!-- DT5210&#45;&gt;ST520113 -->
<g id="edge30" class="edge">
<title>DT5210&#45;&gt;ST520113</title>
<path fill="none" stroke="black" d="M414.21,-349.45C362.14,-341.07 260.85,-322.57 236.12,-296.5 220.66,-280.2 216.43,-254.67 214.3,-234.88"/>
<polygon fill="black" stroke="black" points="217.78,-234.54 213.31,-224.94 210.81,-235.23 217.78,-234.54"/>
</g>
<!-- DT5210&#45;&gt;ST520114 -->
<g id="edge31" class="edge">
<title>DT5210&#45;&gt;ST520114</title>
<path fill="none" stroke="black" d="M475.84,-354.77C517.55,-353.27 590.81,-343.61 625.12,-296.5 638.02,-278.8 634.85,-253.65 629.26,-234.36"/>
<polygon fill="black" stroke="black" points="632.61,-233.34 626.17,-224.93 625.96,-235.53 632.61,-233.34"/>
</g>
<!-- DT5210&#45;&gt;ST520115 -->
<g id="edge32" class="edge">
<title>DT5210&#45;&gt;ST520115</title>
<path fill="none" stroke="black" d="M475.97,-353.05C518.42,-349.54 595.16,-337.51 644.12,-296.5 686.53,-260.99 708.77,-197.86 718.63,-161.31"/>
<polygon fill="black" stroke="black" points="721.94,-162.46 721.03,-151.91 715.16,-160.73 721.94,-162.46"/>
</g>
<!-- ST520103 -->
<g id="node15" class="node">
<title>ST520103</title>
<ellipse fill="none" stroke="black" cx="759.12" cy="-278" rx="49.3" ry="18"/>
<text text-anchor="middle" x="759.12" y="-272.95" font-family="Times,serif" font-size="14.00">ST520103</text>
</g>
<!-- DT5210&#45;&gt;ST520103 -->
<g id="edge20" class="edge">
<title>DT5210&#45;&gt;ST520103</title>
<path fill="none" stroke="black" d="M475.75,-347.88C523.14,-337.53 617.02,-316.62 696.12,-296.5 700.7,-295.34 705.46,-294.09 710.21,-292.81"/>
<polygon fill="black" stroke="black" points="711.03,-296.22 719.76,-290.22 709.19,-289.46 711.03,-296.22"/>
</g>
<!-- ST520107 -->
<g id="node16" class="node">
<title>ST520107</title>
<ellipse fill="none" stroke="black" cx="876.12" cy="-278" rx="49.3" ry="18"/>
<text text-anchor="middle" x="876.12" y="-272.95" font-family="Times,serif" font-size="14.00">ST520107</text>
</g>
<!-- DT5210&#45;&gt;ST520107 -->
<g id="edge24" class="edge">
<title>DT5210&#45;&gt;ST520107</title>
<path fill="none" stroke="black" d="M475.76,-351.13C539.71,-343.79 691.82,-324.72 817.12,-296.5 820.94,-295.64 824.87,-294.67 828.81,-293.64"/>
<polygon fill="black" stroke="black" points="829.65,-297.03 838.36,-291 827.79,-290.29 829.65,-297.03"/>
</g>
<!-- ST520108 -->
<g id="node17" class="node">
<title>ST520108</title>
<ellipse fill="none" stroke="black" cx="993.12" cy="-278" rx="49.3" ry="18"/>
<text text-anchor="middle" x="993.12" y="-272.95" font-family="Times,serif" font-size="14.00">ST520108</text>
</g>
<!-- DT5210&#45;&gt;ST520108 -->
<g id="edge25" class="edge">
<title>DT5210&#45;&gt;ST520108</title>
<path fill="none" stroke="black" d="M476.03,-352.67C553.7,-347.67 763.1,-331.74 934.12,-296.5 938.13,-295.68 942.25,-294.71 946.37,-293.65"/>
<polygon fill="black" stroke="black" points="946.98,-297.11 955.72,-291.12 945.15,-290.36 946.98,-297.11"/>
</g>
</g>
</svg>
